<svg width="335" height="64" viewBox="0 0 335 64" fill="none" xmlns="http://www.w3.org/2000/svg">
<path d="M0.915389 48.7534H11.3361C11.4461 48.7534 11.555 48.7316 11.6566 48.6893C11.7582 48.6469 11.8505 48.5849 11.9283 48.5066C12.0061 48.4284 12.0677 48.3355 12.1098 48.2332C12.1519 48.131 12.1736 48.0215 12.1736 47.9108V24.4518H27.7062C27.8166 24.4518 27.9259 24.4299 28.0278 24.3872C28.1297 24.3446 28.2222 24.2821 28.3 24.2034C28.3779 24.1247 28.4395 24.0312 28.4813 23.9285C28.5231 23.8257 28.5443 23.7156 28.5437 23.6046V15.4872C28.5437 15.2637 28.4555 15.0494 28.2984 14.8914C28.1414 14.7334 27.9283 14.6446 27.7062 14.6446H0.915389C0.69327 14.6446 0.480248 14.7334 0.323186 14.8914C0.166125 15.0494 0.0778809 15.2637 0.0778809 15.4872V47.9108C0.0778809 48.0215 0.099563 48.131 0.141651 48.2332C0.18374 48.3355 0.245417 48.4284 0.323186 48.5066C0.400955 48.5849 0.493278 48.6469 0.594888 48.6893C0.696498 48.7316 0.805407 48.7534 0.915389 48.7534Z" fill="#1F1F1F"/>
<path d="M60.0027 16.3022C56.9276 14.8348 53.5667 14.0735 50.1632 14.0735C46.7598 14.0735 43.3989 14.8348 40.3238 16.3022C37.495 17.7379 35.1182 19.9359 33.4585 22.6512C31.7988 25.3665 30.9215 28.4923 30.9243 31.6799C30.9272 34.8675 31.8101 37.9917 33.4746 40.7039C35.1392 43.4162 37.5199 45.61 40.3512 47.0406C43.4195 48.5321 46.7831 49.3067 50.1907 49.3067C53.5983 49.3067 56.9619 48.5321 60.0302 47.0406C62.8293 45.6234 65.1798 43.4483 66.8171 40.7603C68.4575 38.0056 69.3022 34.8454 69.2564 31.6345C69.3062 28.4333 68.461 25.2824 66.8171 22.541C65.1715 19.8601 62.8103 17.6984 60.0027 16.3022ZM55.0601 37.4175C54.4206 38.0768 53.6565 38.6006 52.8128 38.9583C51.9691 39.316 51.0628 39.5003 50.1472 39.5003C49.2317 39.5003 48.3254 39.316 47.4816 38.9583C46.6379 38.6006 45.8738 38.0768 45.2344 37.4175C43.9621 36.0363 43.3168 34.084 43.3168 31.6253C43.3168 29.1666 43.9621 27.2927 45.2344 25.9298C45.8792 25.28 46.645 24.7646 47.488 24.4129C48.331 24.0613 49.2346 23.8802 50.1472 23.8802C51.0598 23.8802 51.9635 24.0613 52.8065 24.4129C53.6495 24.7646 54.4153 25.28 55.0601 25.9298C56.3324 27.3111 56.9777 29.2081 56.9777 31.6253C56.9777 34.0426 56.3324 36.0363 55.0601 37.4175Z" fill="#1F1F1F"/>
<path d="M104.029 16.2561C101.461 14.8009 98.5587 14.0514 95.6123 14.0829C91.4065 14.0829 88.1527 15.2846 85.9376 17.6558V15.4872C85.9376 15.2633 85.8495 15.0485 85.6926 14.8898C85.5357 14.731 85.3227 14.6412 85.1001 14.64H75.1737C74.9512 14.6412 74.7382 14.731 74.5812 14.8898C74.4243 15.0485 74.3362 15.2633 74.3362 15.4872V59.9649C74.3356 60.0759 74.3568 60.186 74.3986 60.2888C74.4404 60.3915 74.5021 60.485 74.5799 60.5637C74.6577 60.6424 74.7502 60.7049 74.8521 60.7475C74.954 60.7901 75.0633 60.8121 75.1737 60.8121H85.6585C85.7688 60.8121 85.8781 60.7901 85.98 60.7475C86.0819 60.7049 86.1744 60.6424 86.2523 60.5637C86.3301 60.485 86.3917 60.3915 86.4335 60.2888C86.4754 60.186 86.4966 60.0759 86.496 59.9649V46.0599C88.7842 48.2193 91.8596 49.3105 95.6123 49.3105C98.5559 49.3452 101.457 48.6005 104.024 47.1511C106.556 45.6903 108.637 43.5534 110.037 40.9767C111.496 38.1068 112.257 34.9294 112.257 31.7059C112.257 28.4824 111.496 25.305 110.037 22.4351C108.639 19.86 106.559 17.7246 104.029 16.2653M93.1456 23.8993C94.0637 23.872 94.9769 24.0428 95.8239 24.4002C96.6709 24.7576 97.4321 25.2933 98.0562 25.9712C99.3285 27.3525 99.9738 29.2817 99.9738 31.7036C99.9738 34.1255 99.3285 36.0455 98.0562 37.4314C97.4167 38.0906 96.6527 38.6144 95.8089 38.9721C94.9652 39.3298 94.0589 39.5141 93.1433 39.5141C92.2278 39.5141 91.3214 39.3298 90.4777 38.9721C89.634 38.6144 88.8699 38.0906 88.2304 37.4314C86.9582 36.0501 86.3129 34.1209 86.3129 31.7036C86.3129 29.2863 86.9536 27.3525 88.2304 25.9712C88.8548 25.2921 89.6166 24.7554 90.4644 24.3972C91.3122 24.039 92.2265 23.8676 93.1456 23.8947" fill="#1F1F1F"/>
<path d="M322.776 15.2524V17.2737C320.488 15.1142 317.413 14.023 313.66 14.023C310.715 13.9894 307.814 14.7374 305.248 16.1917C302.716 17.6525 300.635 19.7894 299.235 22.366C297.776 25.236 297.015 28.4134 297.015 31.6368C297.015 34.8603 297.776 38.0377 299.235 40.9076C300.636 43.4821 302.717 45.6171 305.248 47.0774C307.814 48.5326 310.715 49.2822 313.66 49.2507C317.87 49.2507 321.12 48.0489 323.335 45.6777V48.2699C323.335 48.4934 323.423 48.7077 323.58 48.8657C323.737 49.0238 323.95 49.1125 324.172 49.1125H334.085C334.307 49.1125 334.52 49.0238 334.677 48.8657C334.834 48.7077 334.922 48.4934 334.922 48.2699V15.257C334.923 15.146 334.902 15.0359 334.86 14.9331C334.818 14.8304 334.757 14.7369 334.679 14.6582C334.601 14.5795 334.508 14.517 334.406 14.4744C334.305 14.4317 334.195 14.4098 334.085 14.4098H323.605C323.494 14.4092 323.385 14.4305 323.283 14.4726C323.181 14.5147 323.088 14.5767 323.01 14.655C322.931 14.7333 322.869 14.8263 322.827 14.9289C322.784 15.0314 322.763 15.1413 322.763 15.2524M316.118 39.4389C315.199 39.4673 314.285 39.2966 313.438 38.9383C312.59 38.58 311.83 38.0425 311.207 37.3623C309.935 35.981 309.285 34.0564 309.285 31.6345C309.285 29.2127 309.93 27.2881 311.207 25.9068C311.846 25.2482 312.61 24.725 313.453 24.3677C314.297 24.0105 315.202 23.8264 316.118 23.8264C317.033 23.8264 317.938 24.0105 318.782 24.3677C319.625 24.725 320.389 25.2482 321.028 25.9068C322.3 27.2881 322.946 29.2173 322.95 31.6345C322.955 34.0518 322.305 35.981 321.028 37.3623C320.406 38.0425 319.645 38.58 318.797 38.9383C317.95 39.2966 317.036 39.4673 316.118 39.4389Z" fill="#1F1F1F"/>
<path d="M146.077 16.3022C143.002 14.8348 139.641 14.0735 136.238 14.0735C132.834 14.0735 129.474 14.8348 126.398 16.3022C123.57 17.7379 121.193 19.9359 119.533 22.6512C117.874 25.3665 116.996 28.4923 116.999 31.6799C117.002 34.8675 117.885 37.9917 119.549 40.7039C121.214 43.4162 123.595 45.61 126.426 47.0406C129.494 48.5321 132.858 49.3067 136.265 49.3067C139.673 49.3067 143.037 48.5321 146.105 47.0406C148.914 45.6238 151.275 43.4454 152.919 40.7511C154.52 37.9852 155.363 34.8419 155.363 31.6414C155.363 28.4409 154.52 25.2976 152.919 22.5318C151.265 19.8504 148.894 17.6916 146.077 16.3022ZM141.135 37.4175C140.495 38.0768 139.731 38.6006 138.888 38.9583C138.044 39.316 137.137 39.5003 136.222 39.5003C135.306 39.5003 134.4 39.316 133.556 38.9583C132.713 38.6006 131.949 38.0768 131.309 37.4175C130.037 36.0363 129.391 34.084 129.391 31.6253C129.391 29.1666 130.037 27.2927 131.309 25.9298C131.954 25.28 132.72 24.7646 133.563 24.4129C134.406 24.0613 135.309 23.8802 136.222 23.8802C137.135 23.8802 138.038 24.0613 138.881 24.4129C139.724 24.7646 140.49 25.28 141.135 25.9298C142.407 27.3111 143.052 29.2081 143.052 31.6253C143.052 34.0426 142.407 36.0363 141.135 37.4175Z" fill="#1F1F1F"/>
<path d="M236.569 15.4227L223.489 31.8878V15.4734C223.489 15.2499 223.401 15.0356 223.244 14.8776C223.087 14.7196 222.874 14.6308 222.651 14.6308H212.231C212.009 14.632 211.796 14.721 211.638 14.8786C211.481 15.0363 211.391 15.2499 211.389 15.4734V47.897C211.389 48.008 211.41 48.118 211.453 48.2205C211.495 48.323 211.557 48.4161 211.636 48.4944C211.714 48.5727 211.807 48.6347 211.909 48.6768C212.011 48.7188 212.12 48.7402 212.231 48.7396H221.562C221.878 48.7397 222.191 48.6677 222.475 48.5289C222.76 48.3901 223.009 48.1883 223.205 47.9384L236.148 31.4273V47.897C236.148 48.1205 236.236 48.3348 236.393 48.4928C236.55 48.6508 236.763 48.7396 236.985 48.7396H247.47C247.692 48.7396 247.905 48.6508 248.062 48.4928C248.219 48.3348 248.307 48.1205 248.307 47.897V15.4734C248.307 15.2499 248.219 15.0356 248.062 14.8776C247.905 14.7196 247.692 14.6308 247.47 14.6308H238.207C237.892 14.6306 237.582 14.7017 237.298 14.8388C237.014 14.9759 236.765 15.1755 236.569 15.4227Z" fill="#1F1F1F"/>
<path d="M279.528 27.1223H267.904V15.4734C267.904 15.2499 267.816 15.0356 267.659 14.8776C267.502 14.7196 267.289 14.6308 267.067 14.6308H256.646C256.424 14.6308 256.211 14.7196 256.054 14.8776C255.897 15.0356 255.808 15.2499 255.808 15.4734V47.897C255.808 48.008 255.83 48.118 255.873 48.2205C255.915 48.323 255.977 48.4161 256.055 48.4944C256.134 48.5727 256.226 48.6347 256.329 48.6768C256.431 48.7188 256.54 48.7402 256.65 48.7396H267.071C267.293 48.7396 267.506 48.6508 267.663 48.4928C267.82 48.3348 267.909 48.1205 267.909 47.897V36.9341H279.533V47.897C279.533 48.008 279.555 48.118 279.597 48.2205C279.64 48.323 279.702 48.4161 279.78 48.4944C279.858 48.5727 279.951 48.6347 280.053 48.6768C280.155 48.7188 280.265 48.7402 280.375 48.7396H290.855C291.077 48.7396 291.29 48.6508 291.447 48.4928C291.604 48.3348 291.693 48.1205 291.693 47.897V15.4734C291.693 15.2499 291.604 15.0356 291.447 14.8776C291.29 14.7196 291.077 14.6308 290.855 14.6308H280.375C280.265 14.6302 280.155 14.6515 280.053 14.6936C279.951 14.7357 279.858 14.7976 279.78 14.8759C279.702 14.9543 279.64 15.0473 279.597 15.1499C279.555 15.2524 279.533 15.3624 279.533 15.4734L279.528 27.1223Z" fill="#1F1F1F"/>
<path d="M204.712 39.2225C204.709 41.8154 203.683 44.3011 201.86 46.1333C200.036 47.9655 197.564 48.994 194.987 48.9928H191.87C191.648 48.9928 191.435 48.904 191.278 48.746C191.121 48.588 191.032 48.3737 191.032 48.1502V41.8101C191.032 41.6168 191.097 41.4291 191.218 41.2789C191.339 41.1287 191.508 41.0252 191.696 40.9859L203.696 38.3983C203.818 38.3723 203.944 38.374 204.066 38.4034C204.187 38.4327 204.301 38.4888 204.398 38.5677C204.495 38.6466 204.574 38.7463 204.628 38.8595C204.682 38.9728 204.711 39.0968 204.712 39.2225Z" fill="#1F1F1F"/>
<path d="M204.712 24.3689V35.2857C204.712 35.4794 204.646 35.6673 204.525 35.8181C204.405 35.9689 204.236 36.0735 204.048 36.1145L192.044 38.6975C191.922 38.7245 191.795 38.7235 191.674 38.6945C191.552 38.6655 191.438 38.6094 191.341 38.5302C191.244 38.451 191.166 38.3509 191.112 38.2372C191.059 38.1235 191.032 37.9991 191.032 37.8734V26.9519C191.033 26.7589 191.098 26.5716 191.219 26.4216C191.34 26.2716 191.508 26.1679 191.696 26.1278L203.696 23.5401C203.818 23.5141 203.945 23.5159 204.067 23.5455C204.189 23.575 204.303 23.6316 204.4 23.711C204.497 23.7904 204.576 23.8907 204.63 24.0045C204.684 24.1183 204.712 24.2428 204.712 24.3689Z" fill="#1F1F1F"/>
<path d="M204.712 15.4872V20.4461C204.711 20.6389 204.645 20.8257 204.524 20.9755C204.403 21.1254 204.235 21.2293 204.048 21.2702L192.044 23.8533C191.922 23.8802 191.795 23.8792 191.674 23.8502C191.552 23.8212 191.438 23.7651 191.341 23.6859C191.244 23.6067 191.166 23.5066 191.112 23.3929C191.059 23.2792 191.032 23.1548 191.032 23.0291V15.4872C191.032 15.2633 191.121 15.0485 191.278 14.8898C191.434 14.731 191.647 14.6412 191.87 14.64H203.874C204.097 14.6412 204.31 14.731 204.467 14.8898C204.624 15.0485 204.712 15.2633 204.712 15.4872Z" fill="#1F1F1F"/>
<path d="M187.115 14.64H177.939C177.828 14.64 177.719 14.6619 177.617 14.7045C177.515 14.7471 177.422 14.8095 177.344 14.8881C177.265 14.9668 177.203 15.0602 177.161 15.163C177.119 15.2658 177.097 15.376 177.097 15.4872V48.1778C177.104 48.3965 177.195 48.6038 177.352 48.7559C177.508 48.908 177.717 48.9929 177.934 48.9928H187.119C187.23 48.9934 187.339 48.9721 187.441 48.93C187.544 48.8879 187.636 48.826 187.715 48.7476C187.793 48.6693 187.855 48.5763 187.897 48.4737C187.94 48.3712 187.962 48.2613 187.962 48.1502V42.1324V15.4872C187.96 15.2629 187.871 15.0481 187.714 14.8895C187.556 14.7309 187.342 14.6412 187.119 14.64" fill="#1F1F1F"/>
<path d="M160.411 39.2225C160.414 41.8146 161.439 44.2997 163.261 46.1317C165.084 47.9637 167.555 48.9928 170.132 48.9928H173.253C173.363 48.9928 173.472 48.971 173.573 48.9287C173.675 48.8863 173.767 48.8242 173.845 48.746C173.923 48.6678 173.984 48.5749 174.027 48.4727C174.069 48.3704 174.09 48.2609 174.09 48.1502V41.8101C174.09 41.617 174.024 41.4298 173.904 41.2798C173.783 41.1297 173.614 41.026 173.427 40.9859L161.423 38.4029C161.301 38.3768 161.174 38.3785 161.053 38.4078C160.932 38.4371 160.818 38.4933 160.721 38.5723C160.625 38.6513 160.546 38.7511 160.493 38.8644C160.439 38.9776 160.411 39.1015 160.411 39.227" fill="#1F1F1F"/>
<path d="M160.411 24.369V35.2858C160.414 35.4798 160.484 35.667 160.608 35.8154C160.732 35.9639 160.903 36.0647 161.093 36.1007L173.093 38.6838C173.215 38.7106 173.342 38.7095 173.464 38.6806C173.585 38.6516 173.699 38.5955 173.797 38.5165C173.894 38.4374 173.973 38.3373 174.027 38.2237C174.081 38.11 174.109 37.9856 174.109 37.8596V26.952C174.108 26.7591 174.042 26.5723 173.921 26.4225C173.8 26.2726 173.632 26.1687 173.445 26.1278L161.441 23.5402C161.318 23.514 161.192 23.5158 161.07 23.5454C160.949 23.575 160.835 23.6316 160.738 23.7111C160.641 23.7906 160.563 23.8909 160.51 24.0048C160.456 24.1186 160.429 24.2431 160.429 24.369" fill="#1F1F1F"/>
<path d="M160.411 15.4872V20.4461C160.411 20.6391 160.477 20.8263 160.598 20.9764C160.719 21.1264 160.887 21.2301 161.075 21.2702L173.074 23.8533C173.197 23.8801 173.323 23.879 173.445 23.8501C173.567 23.8211 173.681 23.765 173.778 23.6859C173.876 23.6069 173.955 23.5068 174.009 23.3931C174.062 23.2795 174.09 23.155 174.09 23.0291V15.4872C174.09 15.2633 174.002 15.0485 173.845 14.8898C173.688 14.731 173.475 14.6412 173.253 14.64H161.249C161.026 14.6412 160.813 14.731 160.656 14.8898C160.499 15.0485 160.411 15.2633 160.411 15.4872Z" fill="#1F1F1F"/>
</svg>
