<svg width="199" height="40" viewBox="0 0 199 40" fill="none" xmlns="http://www.w3.org/2000/svg">
<g clip-path="url(#clip0_5460_8692)">
<path d="M0.541736 20.4432H6.71121C6.77632 20.4432 6.8408 20.4303 6.90096 20.4054C6.96112 20.3805 7.01577 20.344 7.06182 20.298C7.10786 20.252 7.14438 20.1973 7.16929 20.1372C7.19421 20.0771 7.20703 20.0126 7.20703 19.9475V6.14812H16.403C16.4683 6.14813 16.533 6.13521 16.5934 6.11014C16.6537 6.08506 16.7085 6.0483 16.7545 6.00199C16.8006 5.95568 16.8371 5.90072 16.8619 5.84027C16.8866 5.77982 16.8992 5.71508 16.8988 5.64977V0.874827C16.8988 0.743374 16.8466 0.617306 16.7536 0.524355C16.6606 0.431404 16.5345 0.379181 16.403 0.379181H0.541736C0.410233 0.379181 0.284116 0.431404 0.191129 0.524355C0.0981423 0.617306 0.0458984 0.743374 0.0458984 0.874827V19.9475C0.0458984 20.0126 0.0587351 20.0771 0.0836531 20.1372C0.108571 20.1973 0.145087 20.252 0.191129 20.298C0.237171 20.344 0.29183 20.3805 0.351987 20.4054C0.412145 20.4303 0.476623 20.4432 0.541736 20.4432Z" fill="#1F1F1F"/>
<path d="M35.5242 1.35421C33.7036 0.491034 31.7138 0.0432434 29.6988 0.0432434C27.6838 0.0432434 25.694 0.491034 23.8734 1.35421C22.1987 2.19874 20.7915 3.49172 19.8089 5.08895C18.8263 6.68618 18.3069 8.52486 18.3086 10.3999C18.3103 12.275 18.833 14.1127 19.8185 15.7082C20.804 17.3037 22.2134 18.5941 23.8897 19.4356C25.7062 20.313 27.6976 20.7687 29.7151 20.7687C31.7325 20.7687 33.7239 20.313 35.5404 19.4356C37.1976 18.602 38.5892 17.3226 39.5586 15.7413C40.5297 14.1209 41.0298 12.262 41.0027 10.3733C41.0322 8.49017 40.5318 6.6367 39.5586 5.02412C38.5843 3.44713 37.1864 2.1755 35.5242 1.35421ZM32.5979 13.775C32.2193 14.1628 31.767 14.471 31.2675 14.6814C30.7679 14.8918 30.2314 15.0001 29.6893 15.0001C29.1473 15.0001 28.6107 14.8918 28.1112 14.6814C27.6117 14.471 27.1593 14.1628 26.7807 13.775C26.0275 12.9625 25.6454 11.8141 25.6454 10.3678C25.6454 8.92155 26.0275 7.8192 26.7807 7.01751C27.1625 6.63532 27.6159 6.33213 28.1149 6.12526C28.614 5.91838 29.149 5.8119 29.6893 5.8119C30.2296 5.8119 30.7646 5.91838 31.2637 6.12526C31.7628 6.33213 32.2162 6.63532 32.5979 7.01751C33.3512 7.83004 33.7332 8.94592 33.7332 10.3678C33.7332 11.7898 33.3512 12.9625 32.5979 13.775Z" fill="#1F1F1F"/>
<path d="M61.5888 1.32712C60.069 0.47113 58.3505 0.0302262 56.6061 0.0487476C54.1161 0.0487476 52.1897 0.755648 50.8783 2.15049V0.874821C50.8783 0.743119 50.8261 0.616764 50.7332 0.523383C50.6403 0.430001 50.5142 0.377188 50.3825 0.376473H44.5056C44.3739 0.377188 44.2477 0.430001 44.1548 0.523383C44.0619 0.616764 44.0098 0.743119 44.0098 0.874821V27.0382C44.0094 27.1035 44.022 27.1682 44.0467 27.2287C44.0715 27.2891 44.108 27.3441 44.154 27.3904C44.2001 27.4367 44.2549 27.4734 44.3152 27.4985C44.3756 27.5236 44.4403 27.5365 44.5056 27.5365H50.713C50.7783 27.5365 50.843 27.5236 50.9034 27.4985C50.9637 27.4734 51.0185 27.4367 51.0646 27.3904C51.1106 27.3441 51.1471 27.2891 51.1719 27.2287C51.1966 27.1682 51.2092 27.1035 51.2088 27.0382V18.8587C52.5636 20.129 54.3843 20.7709 56.6061 20.7709C58.3488 20.7913 60.0662 20.3532 61.5861 19.5006C63.0852 18.6413 64.3174 17.3843 65.1464 15.8686C66.0101 14.1805 66.4605 12.3114 66.4605 10.4152C66.4605 8.51908 66.0101 6.65001 65.1464 4.96183C64.3183 3.44706 63.087 2.19094 61.5888 1.33254M55.1457 5.8231C55.6893 5.80707 56.2299 5.90754 56.7314 6.11777C57.2328 6.32799 57.6835 6.6431 58.053 7.04189C58.8062 7.85442 59.1882 8.98925 59.1882 10.4139C59.1882 11.8385 58.8062 12.9679 58.053 13.7832C57.6744 14.1709 57.222 14.4791 56.7225 14.6895C56.223 14.8999 55.6864 15.0083 55.1444 15.0083C54.6023 15.0083 54.0657 14.8999 53.5662 14.6895C53.0667 14.4791 52.6143 14.1709 52.2357 13.7832C51.4825 12.9706 51.1005 11.8358 51.1005 10.4139C51.1005 8.99196 51.4798 7.85442 52.2357 7.04189C52.6054 6.6424 53.0564 6.32668 53.5583 6.11598C54.0603 5.90528 54.6015 5.80449 55.1457 5.82039" fill="#1F1F1F"/>
<path d="M191.096 0.736699V1.92569C189.742 0.655442 187.921 0.0135466 185.699 0.0135466C183.956 -0.0062184 182.238 0.433796 180.719 1.28922C179.22 2.14852 177.988 3.40551 177.159 4.9212C176.295 6.60939 175.845 8.47846 175.845 10.3746C175.845 12.2708 176.295 14.1398 177.159 15.828C177.989 17.3424 179.221 18.5983 180.719 19.4573C182.238 20.3133 183.956 20.7542 185.699 20.7357C188.192 20.7357 190.116 20.0288 191.427 18.6339V20.1588C191.427 20.2902 191.479 20.4163 191.572 20.5093C191.665 20.6022 191.791 20.6544 191.923 20.6544H197.791C197.923 20.6544 198.049 20.6022 198.142 20.5093C198.235 20.4163 198.287 20.2902 198.287 20.1588V0.73941C198.288 0.674094 198.275 0.609347 198.25 0.5489C198.226 0.488453 198.189 0.433498 198.143 0.387186C198.097 0.340874 198.042 0.304119 197.982 0.279041C197.922 0.253964 197.857 0.24106 197.791 0.241061H191.587C191.521 0.240704 191.457 0.253259 191.396 0.278008C191.336 0.302756 191.281 0.339208 191.234 0.385269C191.188 0.431329 191.151 0.486084 191.126 0.546395C191.101 0.606706 191.088 0.671382 191.088 0.736699M187.154 14.964C186.61 14.9808 186.069 14.8804 185.567 14.6696C185.066 14.4588 184.615 14.1427 184.247 13.7425C183.494 12.93 183.109 11.7979 183.109 10.3733C183.109 8.94863 183.491 7.81651 184.247 7.00398C184.625 6.61662 185.078 6.30882 185.577 6.09867C186.076 5.88851 186.612 5.78025 187.154 5.78025C187.696 5.78025 188.232 5.88851 188.731 6.09867C189.231 6.30882 189.683 6.61662 190.061 7.00398C190.815 7.81651 191.197 8.95134 191.199 10.3733C191.202 11.7952 190.817 12.93 190.061 13.7425C189.693 14.1427 189.242 14.4588 188.741 14.6696C188.239 14.8804 187.698 14.9808 187.154 14.964Z" fill="#1F1F1F"/>
<path d="M86.4831 1.35421C84.6626 0.491034 82.6728 0.0432434 80.6578 0.0432434C78.6428 0.0432434 76.653 0.491034 74.8324 1.35421C73.1577 2.19874 71.7505 3.49172 70.7679 5.08895C69.7853 6.68618 69.2659 8.52486 69.2676 10.3999C69.2693 12.275 69.792 14.1127 70.7775 15.7082C71.7629 17.3037 73.1724 18.5941 74.8487 19.4356C76.6652 20.313 78.6566 20.7687 80.674 20.7687C82.6915 20.7687 84.6829 20.313 86.4994 19.4356C88.1628 18.6023 89.5601 17.3208 90.5338 15.7359C91.4815 14.109 91.9808 12.26 91.9808 10.3773C91.9808 8.49466 91.4815 6.64567 90.5338 5.01871C89.5544 3.44144 88.1506 2.17152 86.4831 1.35421ZM83.5569 13.775C83.1783 14.1628 82.726 14.471 82.2264 14.6814C81.7269 14.8918 81.1904 15.0001 80.6483 15.0001C80.1063 15.0001 79.5697 14.8918 79.0702 14.6814C78.5706 14.471 78.1183 14.1628 77.7397 13.775C76.9864 12.9625 76.6044 11.8141 76.6044 10.3678C76.6044 8.92155 76.9864 7.8192 77.7397 7.01751C78.1214 6.63532 78.5748 6.33213 79.0739 6.12526C79.573 5.91838 80.108 5.8119 80.6483 5.8119C81.1886 5.8119 81.7236 5.91838 82.2227 6.12526C82.7218 6.33213 83.1752 6.63532 83.5569 7.01751C84.3102 7.83004 84.6922 8.94592 84.6922 10.3678C84.6922 11.7898 84.3102 12.9625 83.5569 13.775Z" fill="#1F1F1F"/>
<path d="M140.058 0.836912L132.314 10.5222V0.866709C132.314 0.735257 132.262 0.609188 132.169 0.516238C132.076 0.423287 131.95 0.371063 131.818 0.371063H125.649C125.517 0.371767 125.391 0.424127 125.298 0.516849C125.205 0.609572 125.152 0.735229 125.15 0.866709V19.9394C125.15 20.0047 125.163 20.0694 125.188 20.1297C125.213 20.19 125.25 20.2448 125.297 20.2908C125.343 20.3369 125.398 20.3734 125.458 20.3981C125.519 20.4229 125.584 20.4354 125.649 20.4351H131.174C131.361 20.4351 131.546 20.3927 131.714 20.3111C131.883 20.2295 132.03 20.1107 132.146 19.9638L139.809 10.2514V19.9394C139.809 20.0709 139.861 20.1969 139.954 20.2899C140.047 20.3828 140.173 20.4351 140.304 20.4351H146.512C146.643 20.4351 146.769 20.3828 146.862 20.2899C146.955 20.1969 147.008 20.0709 147.008 19.9394V0.866709C147.008 0.735257 146.955 0.609188 146.862 0.516238C146.769 0.423287 146.643 0.371063 146.512 0.371063H141.028C140.842 0.370952 140.658 0.412772 140.49 0.493417C140.322 0.574062 140.174 0.691462 140.058 0.836912Z" fill="#1F1F1F"/>
<path d="M165.491 7.71902H158.609V0.866716C158.609 0.735264 158.557 0.609196 158.464 0.516245C158.371 0.423294 158.245 0.371071 158.114 0.371071H151.944C151.813 0.371071 151.686 0.423294 151.593 0.516245C151.5 0.609196 151.448 0.735264 151.448 0.866716V19.9394C151.448 20.0047 151.461 20.0694 151.486 20.1297C151.511 20.19 151.548 20.2448 151.594 20.2908C151.641 20.3369 151.696 20.3734 151.756 20.3981C151.817 20.4229 151.881 20.4354 151.947 20.4351H158.116C158.248 20.4351 158.374 20.3828 158.467 20.2899C158.56 20.1969 158.612 20.0709 158.612 19.9394V13.4907H165.494V19.9394C165.494 20.0047 165.507 20.0694 165.532 20.1297C165.557 20.19 165.594 20.2448 165.64 20.2908C165.687 20.3369 165.742 20.3734 165.802 20.3981C165.863 20.4229 165.927 20.4354 165.993 20.4351H172.197C172.329 20.4351 172.455 20.3828 172.548 20.2899C172.641 20.1969 172.693 20.0709 172.693 19.9394V0.866716C172.693 0.735264 172.641 0.609196 172.548 0.516245C172.455 0.423294 172.329 0.371071 172.197 0.371071H165.993C165.927 0.370714 165.863 0.383269 165.802 0.408017C165.742 0.432766 165.687 0.469218 165.64 0.515278C165.594 0.561338 165.557 0.616102 165.532 0.676413C165.507 0.736724 165.494 0.801399 165.494 0.866716L165.491 7.71902Z" fill="#1F1F1F"/>
<path d="M121.197 14.8367C121.196 16.362 120.589 17.8242 119.509 18.902C118.429 19.9797 116.965 20.5847 115.44 20.584H113.594C113.463 20.584 113.337 20.5318 113.244 20.4388C113.151 20.3459 113.099 20.2198 113.099 20.0884V16.3589C113.098 16.2452 113.137 16.1348 113.209 16.0464C113.28 15.9581 113.38 15.8972 113.492 15.8741L120.596 14.3519C120.668 14.3367 120.743 14.3377 120.815 14.3549C120.887 14.3722 120.954 14.4052 121.012 14.4516C121.069 14.498 121.116 14.5566 121.148 14.6232C121.18 14.6899 121.197 14.7628 121.197 14.8367Z" fill="#1F1F1F"/>
<path d="M121.197 6.09937V12.521C121.197 12.6349 121.158 12.7455 121.087 12.8342C121.015 12.9229 120.916 12.9844 120.804 13.0086L113.697 14.528C113.625 14.5438 113.55 14.5432 113.478 14.5262C113.406 14.5091 113.339 14.4761 113.281 14.4295C113.224 14.383 113.178 14.3241 113.146 14.2572C113.114 14.1903 113.098 14.1171 113.099 14.0432V7.61879C113.099 7.50522 113.138 7.39509 113.209 7.30684C113.281 7.21859 113.38 7.15757 113.492 7.13399L120.596 5.61184C120.668 5.59652 120.743 5.59761 120.816 5.615C120.888 5.63239 120.955 5.66565 121.013 5.71237C121.07 5.75908 121.117 5.81806 121.149 5.88502C121.181 5.95197 121.197 6.0252 121.197 6.09937Z" fill="#1F1F1F"/>
<path d="M121.197 0.874844V3.79181C121.197 3.90525 121.158 4.01512 121.086 4.10327C121.015 4.19142 120.915 4.25257 120.804 4.27661L113.697 5.79605C113.625 5.81191 113.55 5.81129 113.478 5.79425C113.406 5.77721 113.339 5.74417 113.281 5.69761C113.224 5.65104 113.178 5.59214 113.146 5.52526C113.114 5.45837 113.098 5.38521 113.099 5.31123V0.874844C113.099 0.743141 113.151 0.616787 113.244 0.523405C113.337 0.430024 113.463 0.377211 113.594 0.376495H120.701C120.833 0.377211 120.959 0.430024 121.052 0.523405C121.145 0.616787 121.197 0.743141 121.197 0.874844Z" fill="#1F1F1F"/>
<path d="M110.78 0.376495H105.347C105.282 0.376495 105.217 0.389381 105.156 0.414425C105.096 0.43947 105.041 0.476179 104.995 0.522455C104.948 0.568731 104.912 0.623664 104.887 0.684127C104.862 0.74459 104.849 0.8094 104.849 0.874844V20.1046C104.853 20.2332 104.907 20.3552 104.999 20.4447C105.092 20.5341 105.216 20.5841 105.344 20.584H110.782C110.848 20.5844 110.912 20.5718 110.973 20.5471C111.033 20.5223 111.088 20.4859 111.135 20.4398C111.181 20.3937 111.218 20.339 111.243 20.2787C111.268 20.2184 111.281 20.1537 111.281 20.0884V16.5485V0.874844C111.28 0.742893 111.227 0.616545 111.134 0.52324C111.041 0.429935 110.914 0.377207 110.782 0.376495" fill="#1F1F1F"/>
<path d="M94.9697 14.8368C94.9712 16.3615 95.5781 17.8233 96.6572 18.901C97.7363 19.9787 99.1993 20.584 100.725 20.584H102.572C102.638 20.584 102.702 20.5712 102.762 20.5463C102.822 20.5214 102.877 20.4849 102.923 20.4388C102.969 20.3928 103.006 20.3382 103.031 20.278C103.056 20.2179 103.068 20.1535 103.068 20.0884V16.3589C103.068 16.2453 103.029 16.1352 102.958 16.0469C102.886 15.9587 102.787 15.8977 102.675 15.8741L95.5685 14.3546C95.4963 14.3393 95.4215 14.3403 95.3497 14.3576C95.2779 14.3748 95.2109 14.4079 95.1535 14.4543C95.0961 14.5008 95.0498 14.5595 95.018 14.6261C94.9862 14.6927 94.9697 14.7656 94.9697 14.8394" fill="#1F1F1F"/>
<path d="M94.9697 6.09937V12.521C94.9715 12.6352 95.0126 12.7453 95.0862 12.8326C95.1597 12.92 95.2612 12.9792 95.3734 13.0004L102.478 14.5198C102.55 14.5356 102.625 14.535 102.697 14.518C102.769 14.5009 102.837 14.468 102.895 14.4214C102.952 14.3749 102.999 14.3161 103.031 14.2492C103.063 14.1823 103.079 14.1092 103.079 14.035V7.6188C103.079 7.50535 103.039 7.39549 102.968 7.30734C102.897 7.21919 102.797 7.15804 102.686 7.13399L95.5794 5.61185C95.5069 5.59647 95.4319 5.59752 95.3599 5.61492C95.2879 5.63232 95.2207 5.66562 95.1633 5.71239C95.1058 5.75915 95.0596 5.81818 95.028 5.88515C94.9964 5.95212 94.9802 6.02533 94.9806 6.09937" fill="#1F1F1F"/>
<path d="M94.9697 0.874844V3.79181C94.9697 3.90538 95.0088 4.01551 95.0803 4.10377C95.1518 4.19202 95.2515 4.25303 95.3626 4.27661L102.467 5.79605C102.539 5.81184 102.614 5.8112 102.686 5.79416C102.759 5.77713 102.826 5.74414 102.884 5.69762C102.941 5.65111 102.988 5.59226 103.02 5.52539C103.052 5.45852 103.068 5.38533 103.068 5.31123V0.874844C103.068 0.743141 103.016 0.616787 102.923 0.523405C102.83 0.430024 102.704 0.377211 102.573 0.376495H95.4656C95.3338 0.377211 95.2077 0.430024 95.1148 0.523405C95.0219 0.616787 94.9697 0.743141 94.9697 0.874844Z" fill="#1F1F1F"/>
<path d="M0.0588839 38.7877C0.0215197 38.7505 0.000409583 38.7001 0.00017884 38.6475V33.5452C-0.000929199 33.5195 0.00312034 33.4939 0.0120831 33.4698C0.0210458 33.4457 0.0347314 33.4237 0.0523544 33.405C0.0910166 33.3683 0.14259 33.3484 0.195862 33.3495H1.27216C1.32531 33.3491 1.37664 33.3689 1.41567 33.405C1.43478 33.4229 1.4499 33.4446 1.46002 33.4688C1.47014 33.493 1.47502 33.519 1.47437 33.5452V37.5357H2.62244V33.5452C2.62179 33.519 2.62669 33.493 2.63681 33.4688C2.64693 33.4446 2.66202 33.4229 2.68114 33.405C2.71799 33.3696 2.76705 33.3498 2.81814 33.3495H3.89444C3.92038 33.3486 3.94623 33.3531 3.97038 33.3626C3.99454 33.3721 4.01648 33.3865 4.03484 33.4048C4.0532 33.4232 4.06757 33.4451 4.07708 33.4692C4.08659 33.4934 4.09103 33.5192 4.09012 33.5452V37.5357H5.23492V33.5452C5.23401 33.5186 5.23912 33.4922 5.24985 33.468C5.26058 33.4437 5.27666 33.4221 5.29689 33.405C5.33374 33.3696 5.38278 33.3498 5.43387 33.3495H6.51017C6.53611 33.3486 6.56197 33.3531 6.58613 33.3626C6.61028 33.3721 6.63221 33.3865 6.65057 33.4048C6.66892 33.4232 6.68332 33.4451 6.69283 33.4692C6.70234 33.4934 6.70678 33.5192 6.70587 33.5452V38.6507C6.7052 38.7027 6.68547 38.7526 6.65043 38.7909C6.63251 38.81 6.61074 38.8251 6.58657 38.8353C6.5624 38.8454 6.53636 38.8502 6.51017 38.8496H0.195862C0.170006 38.8492 0.144514 38.8435 0.120953 38.8328C0.0973923 38.8222 0.0762688 38.8068 0.0588839 38.7877Z" fill="#1F1F1F"/>
<path d="M16.3436 38.7877C16.3073 38.7475 16.2875 38.6951 16.2881 38.641V33.555C16.2877 33.5279 16.2927 33.501 16.3028 33.4758C16.313 33.4507 16.3281 33.4279 16.3473 33.4087C16.3665 33.3896 16.3893 33.3745 16.4144 33.3643C16.4396 33.3541 16.4665 33.3491 16.4936 33.3496H17.5601C17.5872 33.3491 17.6141 33.3541 17.6392 33.3643C17.6644 33.3745 17.6872 33.3896 17.7064 33.4087C17.7255 33.4279 17.7407 33.4507 17.7508 33.4758C17.761 33.501 17.766 33.5279 17.7656 33.555V36.6229L19.9312 33.4995C19.9587 33.4533 19.9979 33.415 20.0448 33.3887C20.0918 33.3624 20.1448 33.3489 20.1987 33.3496H21.1771C21.2039 33.3484 21.2305 33.3531 21.2553 33.3632C21.2801 33.3734 21.3024 33.3887 21.3206 33.4082C21.3575 33.4481 21.3774 33.5007 21.3761 33.555V38.6507C21.3754 38.7027 21.3557 38.7526 21.3206 38.7909C21.3024 38.8105 21.2801 38.8258 21.2553 38.8359C21.2305 38.8461 21.2039 38.8507 21.1771 38.8496H20.0943C20.04 38.8509 19.9874 38.831 19.9475 38.7942C19.928 38.7759 19.9126 38.7536 19.9025 38.7289C19.8924 38.7041 19.8877 38.6775 19.8888 38.6507V35.7165L17.7232 38.716C17.6942 38.759 17.6577 38.7965 17.6156 38.8268C17.5672 38.855 17.5117 38.8686 17.4557 38.8659H16.4773C16.4507 38.8632 16.425 38.8549 16.4019 38.8414C16.3788 38.8279 16.3589 38.8096 16.3436 38.7877Z" fill="#1F1F1F"/>
<path d="M31.0204 38.7909C31.0019 38.772 30.9875 38.7495 30.978 38.7249C30.9685 38.7002 30.964 38.6739 30.965 38.6475V33.555C30.9637 33.5007 30.9835 33.4481 31.0204 33.4082C31.0387 33.3887 31.061 33.3734 31.0857 33.3632C31.1105 33.3531 31.1372 33.3484 31.1639 33.3496H32.2369C32.2641 33.3491 32.291 33.3541 32.3161 33.3643C32.3412 33.3745 32.3641 33.3896 32.3832 33.4087C32.4024 33.4279 32.4175 33.4507 32.4277 33.4758C32.4379 33.501 32.4429 33.5279 32.4424 33.555V35.4133H34.2819V33.555C34.2815 33.5279 34.2865 33.501 34.2967 33.4758C34.3069 33.4507 34.322 33.4279 34.3411 33.4087C34.3603 33.3896 34.3831 33.3745 34.4083 33.3643C34.4334 33.3541 34.4603 33.3491 34.4874 33.3496H35.5539C35.581 33.3491 35.608 33.3541 35.6331 33.3643C35.6582 33.3745 35.681 33.3896 35.7002 33.4087C35.7194 33.4279 35.7345 33.4507 35.7447 33.4758C35.7548 33.501 35.7598 33.5279 35.7594 33.555V38.6507C35.7605 38.6775 35.7558 38.7041 35.7457 38.7289C35.7356 38.7536 35.7202 38.7759 35.7007 38.7942C35.6608 38.831 35.6082 38.8509 35.5539 38.8496H34.4874C34.4331 38.8509 34.3805 38.831 34.3406 38.7942C34.3211 38.7759 34.3057 38.7536 34.2956 38.7289C34.2855 38.7041 34.2808 38.6775 34.2819 38.6507V36.7272H32.4294V38.6507C32.4305 38.6775 32.4258 38.7041 32.4157 38.7289C32.4056 38.7536 32.3902 38.7759 32.3707 38.7942C32.3308 38.831 32.2782 38.8509 32.2239 38.8496H31.1509C31.1015 38.8472 31.0549 38.8263 31.0204 38.7909Z" fill="#1F1F1F"/>
<path d="M45.4035 38.7877C45.3661 38.7505 45.345 38.7001 45.3448 38.6475V33.5452C45.3441 33.519 45.349 33.493 45.3592 33.4688C45.3693 33.4446 45.3844 33.4229 45.4035 33.405C45.4415 33.3694 45.4917 33.3496 45.5438 33.3495H46.6168C46.6711 33.3482 46.7237 33.3681 46.7636 33.405C46.7827 33.4229 46.7978 33.4446 46.8079 33.4688C46.818 33.493 46.8229 33.519 46.8223 33.5452V35.2177H47.5365C48.1046 35.1802 48.6681 35.3403 49.1314 35.6708C49.3216 35.8338 49.4711 36.039 49.5679 36.2699C49.6648 36.5009 49.7063 36.7512 49.6891 37.001C49.7003 37.2535 49.6551 37.5053 49.557 37.7381C49.4588 37.971 49.3101 38.1792 49.1216 38.3475C48.6735 38.7047 48.1085 38.8825 47.5365 38.8463H45.5438C45.5176 38.8464 45.4918 38.8413 45.4677 38.8312C45.4436 38.8211 45.4218 38.8063 45.4035 38.7877ZM47.5039 37.715C47.5944 37.7208 47.685 37.7062 47.7691 37.6724C47.8532 37.6385 47.9287 37.5863 47.9899 37.5194C48.1054 37.3745 48.1645 37.1927 48.1562 37.0076C48.169 36.8258 48.1092 36.6464 47.9899 36.5087C47.9244 36.4496 47.8475 36.4044 47.764 36.3758C47.6804 36.3472 47.592 36.3359 47.5039 36.3425H46.8223V37.715H47.5039ZM50.3284 38.7877C50.2894 38.7524 50.266 38.7032 50.2632 38.6507V33.5452C50.2625 33.519 50.2674 33.493 50.2775 33.4688C50.2876 33.4446 50.3028 33.4229 50.3219 33.405C50.3587 33.3696 50.4078 33.3498 50.4588 33.3495H51.5808C51.6341 33.3484 51.6857 33.3683 51.7243 33.405C51.7424 33.4235 51.7566 33.4455 51.7661 33.4695C51.7756 33.4936 51.7803 33.5193 51.7798 33.5452V38.6507C51.7791 38.7027 51.7594 38.7526 51.7243 38.7909C51.7058 38.8101 51.6835 38.8253 51.6587 38.8354C51.634 38.8455 51.6075 38.8503 51.5808 38.8496H50.4588C50.4089 38.847 50.362 38.8247 50.3284 38.7877Z" fill="#1F1F1F"/>
<path d="M71.2965 39.8864C71.2608 39.846 71.2421 39.7935 71.2443 39.7397V37.7379C71.2432 37.7117 71.2472 37.6856 71.2561 37.6609C71.2651 37.6363 71.2788 37.6137 71.2965 37.5944C71.3145 37.5745 71.3368 37.5589 71.3616 37.5488C71.3865 37.5386 71.4132 37.5342 71.44 37.5357H71.5803C71.8216 37.5357 71.9912 37.3238 72.0858 36.9032C72.1982 36.3201 72.2474 35.7266 72.2326 35.1329V33.5452C72.2319 33.519 72.2368 33.493 72.2469 33.4688C72.2571 33.4446 72.2722 33.4229 72.2913 33.405C72.3311 33.3681 72.3838 33.3482 72.4381 33.3495H76.1823C76.2094 33.3492 76.2363 33.3541 76.2615 33.3642C76.2867 33.3743 76.3097 33.3892 76.329 33.4082C76.3483 33.4274 76.3635 33.4503 76.3736 33.4755C76.3837 33.5007 76.3885 33.5278 76.3877 33.5549V37.5357H76.7465C76.7738 37.5341 76.8011 37.5386 76.8265 37.5487C76.8518 37.5588 76.8747 37.5744 76.8933 37.5944C76.9125 37.6129 76.9276 37.6353 76.9377 37.66C76.9478 37.6847 76.9527 37.7112 76.952 37.7379V39.7397C76.9524 39.7668 76.9474 39.7937 76.9373 39.8188C76.9271 39.8439 76.912 39.8667 76.8928 39.8859C76.8736 39.905 76.8508 39.9202 76.8257 39.9303C76.8005 39.9405 76.7736 39.9455 76.7465 39.945H75.68C75.6529 39.9455 75.626 39.9405 75.6009 39.9303C75.5757 39.9202 75.5529 39.905 75.5337 39.8859C75.5146 39.8667 75.4994 39.8439 75.4893 39.8188C75.4791 39.7937 75.4741 39.7668 75.4745 39.7397V38.8463H72.7185V39.7397C72.7193 39.7668 72.7145 39.7938 72.7044 39.8191C72.6943 39.8443 72.6791 39.8672 72.6598 39.8864C72.6412 39.9054 72.6188 39.9204 72.5941 39.9305C72.5695 39.9406 72.543 39.9455 72.5163 39.945H71.44C71.4133 39.9457 71.3868 39.9409 71.3621 39.9308C71.3374 39.9207 71.3151 39.9056 71.2965 39.8864ZM74.9103 37.5357V34.6602H73.6546V35.3122C73.6546 36.3457 73.5404 37.0858 73.3284 37.5259L74.9103 37.5357Z" fill="#1F1F1F"/>
<path d="M89.8092 38.7877C89.7719 38.7505 89.7508 38.7001 89.7505 38.6475V34.6602H88.3383V35.3122C88.3553 36.0065 88.2974 36.7006 88.1654 37.3825C88.0855 37.8119 87.8541 38.1983 87.5131 38.4714C87.1066 38.7294 86.6309 38.8568 86.1498 38.8366C86.1232 38.8362 86.0969 38.8302 86.0727 38.8189C86.0485 38.8077 86.027 38.7915 86.0096 38.7714C85.9897 38.7536 85.9737 38.7321 85.9625 38.708C85.9513 38.6839 85.9451 38.6577 85.9443 38.6312V37.7705C85.9443 37.6596 86.0096 37.5911 86.1433 37.5651C86.4205 37.5194 86.6162 37.2879 86.7304 36.8739C86.8622 36.3033 86.9203 35.7182 86.9032 35.1329V33.5452C86.9026 33.519 86.9075 33.493 86.9176 33.4688C86.9277 33.4446 86.9428 33.4229 86.9619 33.405C87.0018 33.3681 87.0544 33.3482 87.1087 33.3495H91.0225C91.0496 33.3491 91.0765 33.3541 91.1017 33.3643C91.1268 33.3745 91.1496 33.3896 91.1688 33.4087C91.188 33.4279 91.2031 33.4507 91.2133 33.4758C91.2234 33.5009 91.2284 33.5279 91.228 33.5549V38.6507C91.2291 38.6775 91.2244 38.7041 91.2143 38.7289C91.2042 38.7536 91.1888 38.7759 91.1693 38.7942C91.1294 38.831 91.0768 38.8509 91.0225 38.8496H89.9462C89.9204 38.8492 89.8949 38.8435 89.8713 38.8328C89.8477 38.8222 89.8266 38.8068 89.8092 38.7877Z" fill="#1F1F1F"/>
<path d="M105.229 33.405C105.247 33.4237 105.261 33.4457 105.27 33.4698C105.279 33.4939 105.283 33.5195 105.282 33.5452V38.6507C105.282 38.7023 105.264 38.7522 105.229 38.7909C105.211 38.8101 105.189 38.8252 105.164 38.8353C105.139 38.8454 105.113 38.8503 105.086 38.8496H104.01C103.984 38.8496 103.959 38.8444 103.935 38.8343C103.912 38.8242 103.89 38.8095 103.873 38.7909C103.835 38.7538 103.814 38.7034 103.814 38.6507V36.9815H103.188L102.301 38.6507C102.271 38.7129 102.225 38.7657 102.168 38.8032C102.11 38.8406 102.043 38.8612 101.974 38.8626H100.872C100.827 38.8615 100.783 38.8428 100.751 38.8105C100.72 38.7807 100.701 38.7398 100.699 38.6964C100.701 38.6664 100.71 38.6373 100.725 38.6116L101.792 36.7826C101.498 36.6489 101.251 36.431 101.081 36.1566C100.907 35.8666 100.818 35.5331 100.826 35.1949C100.821 34.8615 100.908 34.5332 101.078 34.2461C101.253 33.9606 101.51 33.7336 101.815 33.5941C102.181 33.432 102.579 33.353 102.979 33.3626H105.089C105.14 33.3587 105.19 33.3738 105.229 33.405ZM103.814 34.4809H103.005C102.916 34.4768 102.827 34.4918 102.744 34.525C102.662 34.5582 102.587 34.6087 102.526 34.6732C102.406 34.8138 102.345 34.9943 102.353 35.1785C102.347 35.266 102.358 35.3538 102.387 35.4368C102.415 35.5197 102.46 35.596 102.519 35.6611C102.584 35.7208 102.661 35.7666 102.745 35.7958C102.828 35.8249 102.917 35.8368 103.005 35.8306H103.814V34.4809Z" fill="#1F1F1F"/>
<path d="M125.099 38.7877C125.061 38.7505 125.04 38.7001 125.04 38.6475V33.5549C125.039 33.5007 125.059 33.4481 125.096 33.4082C125.113 33.3888 125.135 33.3734 125.159 33.3633C125.183 33.3532 125.21 33.3485 125.236 33.3495H128.66C128.687 33.3489 128.713 33.3538 128.737 33.3639C128.761 33.374 128.783 33.3891 128.801 33.4082C128.838 33.4481 128.857 33.5007 128.856 33.5549V34.3798C128.857 34.4329 128.837 34.4842 128.801 34.5233C128.783 34.5424 128.761 34.5575 128.737 34.5676C128.713 34.5777 128.687 34.5826 128.66 34.5819H126.514V38.6507C126.516 38.6775 126.512 38.7044 126.502 38.7293C126.491 38.7541 126.476 38.7763 126.456 38.7942C126.417 38.8308 126.365 38.8507 126.312 38.8496H125.236C125.21 38.8492 125.184 38.8435 125.161 38.8328C125.137 38.8222 125.116 38.8068 125.099 38.7877Z" fill="#1F1F1F"/>
<path d="M138.452 38.3801C138.23 38.1804 138.053 37.9345 137.936 37.6598C137.818 37.385 137.762 37.0879 137.77 36.7891C137.77 36.6435 137.77 36.4185 137.77 36.1142C137.77 35.81 137.77 35.5817 137.77 35.4296C137.762 35.1296 137.819 34.8314 137.937 34.5555C138.055 34.2797 138.232 34.0328 138.455 33.8321C138.966 33.4672 139.579 33.2711 140.207 33.2711C140.835 33.2711 141.447 33.4672 141.958 33.8321C142.181 34.0331 142.358 34.2799 142.477 34.5556C142.596 34.8313 142.654 35.1295 142.646 35.4296C142.646 35.7328 142.646 35.961 142.646 36.1142C142.646 36.2675 142.646 36.4957 142.646 36.7891C142.654 37.0878 142.598 37.3846 142.48 37.6592C142.362 37.9339 142.186 38.1798 141.965 38.3801C141.448 38.7346 140.835 38.9244 140.208 38.9244C139.581 38.9244 138.969 38.7346 138.452 38.3801ZM140.862 37.4999C141.042 37.2883 141.135 37.0172 141.123 36.7402C141.123 36.437 141.123 36.2218 141.123 36.0882C141.123 35.9545 141.123 35.7426 141.123 35.4524C141.135 35.1755 141.042 34.9043 140.862 34.6928C140.776 34.6092 140.674 34.5442 140.562 34.5015C140.45 34.4589 140.33 34.4397 140.21 34.445C140.09 34.4403 139.971 34.4598 139.859 34.5024C139.746 34.5449 139.644 34.6097 139.558 34.6928C139.378 34.904 139.286 35.1757 139.3 35.4524C139.3 35.5959 139.3 35.8078 139.3 36.0882C139.3 36.3686 139.3 36.587 139.3 36.7402C139.286 37.017 139.378 37.2886 139.558 37.4999C139.644 37.5825 139.747 37.6468 139.859 37.6888C139.971 37.7308 140.09 37.7497 140.21 37.7444C140.33 37.7503 140.449 37.7317 140.562 37.6896C140.674 37.6476 140.776 37.583 140.862 37.4999Z" fill="#1F1F1F"/>
<path d="M152.127 38.7877C152.09 38.7506 152.069 38.7001 152.069 38.6475V33.555C152.067 33.528 152.071 33.5011 152.081 33.4758C152.091 33.4506 152.105 33.4276 152.124 33.4083C152.142 33.3888 152.163 33.3735 152.188 33.3633C152.212 33.3532 152.238 33.3485 152.264 33.3496H154.485C155.056 33.3169 155.621 33.4802 156.087 33.8125C156.284 33.977 156.44 34.186 156.542 34.4223C156.643 34.6585 156.687 34.9155 156.671 35.1721C156.689 35.4254 156.645 35.6794 156.543 35.9122C156.442 36.145 156.285 36.3497 156.087 36.5088C155.617 36.83 155.054 36.9859 154.485 36.9521H153.592V38.6508C153.591 38.7027 153.571 38.7526 153.536 38.7909C153.518 38.81 153.497 38.8252 153.472 38.8353C153.448 38.8454 153.422 38.8503 153.396 38.8496H152.264C152.238 38.8492 152.213 38.8435 152.189 38.8328C152.166 38.8222 152.145 38.8068 152.127 38.7877ZM154.446 35.8306C154.631 35.8416 154.814 35.7809 154.955 35.6611C155.019 35.5954 155.068 35.5171 155.099 35.4311C155.131 35.3452 155.144 35.2536 155.138 35.1623C155.147 34.9825 155.086 34.8062 154.968 34.67C154.9 34.602 154.819 34.5499 154.728 34.5172C154.638 34.4845 154.542 34.4721 154.446 34.4809H153.569V35.8306H154.446Z" fill="#1F1F1F"/>
<path d="M166.439 38.3801C166.216 38.1805 166.039 37.9348 165.921 37.6601C165.803 37.3853 165.746 37.0881 165.754 36.7891C165.754 36.6424 165.754 36.4174 165.754 36.1142C165.754 35.811 165.754 35.5828 165.754 35.4296C165.746 35.1295 165.804 34.8313 165.923 34.5556C166.042 34.2799 166.219 34.0331 166.442 33.8321C166.953 33.4672 167.565 33.2711 168.193 33.2711C168.821 33.2711 169.434 33.4672 169.945 33.8321C170.168 34.0328 170.345 34.2797 170.463 34.5555C170.581 34.8314 170.638 35.1296 170.63 35.4296C170.63 35.7328 170.63 35.961 170.63 36.1142C170.63 36.2675 170.63 36.4957 170.63 36.7891C170.638 37.0876 170.582 37.3843 170.465 37.659C170.348 37.9336 170.173 38.1796 169.951 38.3801C169.434 38.7346 168.822 38.9244 168.195 38.9244C167.568 38.9244 166.956 38.7346 166.439 38.3801ZM168.849 37.4999C169.027 37.2878 169.119 37.0168 169.107 36.7402C169.107 36.437 169.107 36.2218 169.107 36.0882C169.107 35.9545 169.107 35.7426 169.107 35.4524C169.119 35.1759 169.027 34.9048 168.849 34.6928C168.669 34.5324 168.437 34.4437 168.197 34.4437C167.956 34.4437 167.724 34.5324 167.544 34.6928C167.364 34.9035 167.27 35.1752 167.283 35.4524C167.283 35.5959 167.283 35.8078 167.283 36.0882C167.283 36.3686 167.283 36.587 167.283 36.7402C167.27 37.0174 167.364 37.2891 167.544 37.4999C167.726 37.6557 167.957 37.7414 168.197 37.7414C168.436 37.7414 168.667 37.6557 168.849 37.4999Z" fill="#1F1F1F"/>
<path d="M179.812 39.8864C179.793 39.8671 179.778 39.8441 179.768 39.8188C179.759 39.7936 179.755 39.7666 179.756 39.7397V37.7379C179.755 37.7114 179.759 37.685 179.769 37.6602C179.778 37.6355 179.793 37.6131 179.812 37.5944C179.829 37.5744 179.85 37.5587 179.875 37.5485C179.899 37.5383 179.925 37.5339 179.952 37.5357H180.092C180.333 37.5357 180.503 37.3238 180.601 36.9032C180.71 36.3197 180.758 35.7264 180.744 35.1329V33.5452C180.744 33.519 180.749 33.493 180.759 33.4688C180.769 33.4446 180.784 33.4229 180.803 33.405C180.843 33.3681 180.896 33.3482 180.95 33.3495H184.694C184.721 33.3491 184.748 33.3541 184.773 33.3643C184.798 33.3745 184.821 33.3896 184.84 33.4087C184.86 33.4279 184.875 33.4507 184.885 33.4758C184.895 33.5009 184.9 33.5279 184.9 33.5549V37.5357H185.262C185.288 37.5346 185.315 37.5393 185.34 37.5494C185.364 37.5595 185.387 37.5749 185.405 37.5944C185.424 37.6129 185.439 37.6353 185.45 37.66C185.46 37.6847 185.464 37.7112 185.464 37.7379V39.7397C185.465 39.7668 185.46 39.7939 185.45 39.8191C185.44 39.8443 185.424 39.8672 185.405 39.8864C185.386 39.9054 185.364 39.9204 185.339 39.9305C185.315 39.9406 185.288 39.9456 185.262 39.945H184.192C184.165 39.9456 184.139 39.9406 184.114 39.9305C184.089 39.9204 184.067 39.9054 184.048 39.8864C184.029 39.8672 184.014 39.8443 184.004 39.8191C183.994 39.7939 183.989 39.7668 183.99 39.7397V38.8463H181.234V39.7397C181.234 39.7668 181.23 39.7939 181.219 39.8191C181.209 39.8443 181.194 39.8672 181.175 39.8864C181.155 39.9053 181.133 39.9203 181.107 39.9304C181.082 39.9405 181.055 39.9454 181.028 39.945H179.952C179.926 39.9461 179.899 39.9414 179.875 39.9313C179.851 39.9212 179.829 39.9058 179.812 39.8864ZM183.422 37.5357V34.6602H182.166V35.3122C182.166 36.3457 182.055 37.0858 181.84 37.5259L183.422 37.5357Z" fill="#1F1F1F"/>
<path d="M192.841 38.7942C192.81 38.7641 192.793 38.7231 192.792 38.6801C192.788 38.6564 192.788 38.6321 192.792 38.6084L194.622 33.5778C194.64 33.5072 194.683 33.4454 194.743 33.4035C194.803 33.3617 194.875 33.3426 194.948 33.3496H196.174C196.247 33.3426 196.32 33.3617 196.379 33.4035C196.439 33.4454 196.482 33.5072 196.5 33.5778L198.33 38.6084C198.335 38.6321 198.335 38.6564 198.33 38.6801C198.328 38.7235 198.31 38.7644 198.278 38.7942C198.263 38.81 198.246 38.8227 198.226 38.8317C198.207 38.8406 198.185 38.8456 198.164 38.8463H197.143C197.086 38.8485 197.03 38.8331 196.982 38.8022C196.934 38.7712 196.897 38.7263 196.876 38.6736L196.595 37.9107H194.537L194.253 38.6736C194.232 38.7266 194.195 38.7718 194.147 38.8028C194.099 38.8338 194.043 38.849 193.986 38.8463H192.965C192.942 38.8468 192.919 38.8423 192.898 38.8333C192.876 38.8244 192.857 38.811 192.841 38.7942ZM194.857 36.7337H196.256L195.555 34.7319L194.857 36.7337Z" fill="#1F1F1F"/>
</g>
<defs>
<clipPath id="clip0_5460_8692">
<rect width="198.333" height="40" fill="white"/>
</clipPath>
</defs>
</svg>
