<svg id="icon-rft" xmlns="http://www.w3.org/2000/svg" viewBox="0 0 512 161.01"><path fill="%23222" d="M61.42 110.37l-10.78 50.64H0L34.36 0h75.34c21.33 0 36.72 3.59 46.15 10.78 9.43 7.3 14.15 18.98 14.15 35.03 0 8.2-1.35 15.61-3.93 22.34s-5.73 12.01-9.32 15.83c-7.19 7.64-15.05 13.36-20.32 15.16l-3.93 1.35-.45 1.91 26.72 58.61h-55.92l-20.66-50.64H61.42zm39.63-68.94H76.13l-5.95 27.62h24.81c13.47 0 20.32-3.93 20.32-16.17 0-7.63-4.71-11.45-14.26-11.45zm73.66 119.58L209.07 0h138.89l-8.31 39.19h-88.36l-6.85 31.89h72.2l-7.86 36.83h-72.2l-11.23 53.11h-50.64zM348.29 41.43L357.05 0H512l-8.65 41.43h-52.21l-25.6 119.58h-50.53L400.5 41.43h-52.21z"></path></svg>
